<svg width="13" height="7" viewBox="0 0 13 7" fill="none" xmlns="http://www.w3.org/2000/svg">
<path d="M6.72181 6.78C6.58129 6.92069 6.39065 6.99983 6.19181 7L5.81181 7C5.61339 6.9977 5.42353 6.91888 5.28181 6.78L0.151805 1.64C0.104941 1.59352 0.0677441 1.53822 0.0423598 1.47729C0.0169754 1.41636 0.00390632 1.35101 0.00390632 1.285C0.00390632 1.21899 0.0169754 1.15364 0.0423598 1.09271C0.0677441 1.03178 0.104941 0.976481 0.151805 0.93L0.861805 0.22C0.907428 0.173436 0.961884 0.136444 1.02198 0.11119C1.08208 0.0859366 1.14662 0.0729284 1.21181 0.0729284C1.27699 0.0729284 1.34153 0.0859366 1.40163 0.11119C1.46173 0.136444 1.51618 0.173436 1.56181 0.22L6.00381 4.67L10.4438 0.22C10.4903 0.173136 10.5456 0.135939 10.6065 0.110554C10.6674 0.0851699 10.7328 0.0721008 10.7988 0.0721008C10.8648 0.0721008 10.9302 0.0851699 10.9911 0.110554C11.052 0.135939 11.1073 0.173136 11.1538 0.22L11.8538 0.93C11.9007 0.976482 11.9379 1.03178 11.9633 1.09271C11.9886 1.15364 12.0017 1.21899 12.0017 1.285C12.0017 1.35101 11.9886 1.41636 11.9633 1.47729C11.9379 1.53822 11.9007 1.59352 11.8538 1.64L6.72181 6.78Z" fill="#E2E4E7"/>
</svg>
