<svg width="16" height="18" viewBox="0 0 16 18" fill="none" xmlns="http://www.w3.org/2000/svg">
<path d="M15.1834 6.04171C14.3084 2.19171 10.95 0.458374 8.00002 0.458374C8.00002 0.458374 8.00002 0.458374 7.99168 0.458374C5.05002 0.458374 1.68335 2.18337 0.808352 6.03337C-0.166648 10.3334 2.46669 13.975 4.85002 16.2667C5.73335 17.1167 6.86668 17.5417 8.00002 17.5417C9.13335 17.5417 10.2667 17.1167 11.1417 16.2667C13.525 13.975 16.1584 10.3417 15.1834 6.04171ZM8.00002 10.2167C6.55002 10.2167 5.37502 9.04171 5.37502 7.59171C5.37502 6.14171 6.55002 4.96671 8.00002 4.96671C9.45002 4.96671 10.625 6.14171 10.625 7.59171C10.625 9.04171 9.45002 10.2167 8.00002 10.2167Z" fill="#6F7787"/>
</svg>
